<svg width="50" height="50" fill="none" xmlns="http://www.w3.org/2000/svg"><path d="M24.994 49.4c13.475 0 24.399-10.923 24.399-24.398S38.469.603 24.994.603C11.52.603.596 11.527.596 25.002.596 38.477 11.519 49.4 24.994 49.4z" stroke="url(#paint0_linear)" stroke-miterlimit="10"/><path d="M30.8 27.454c1.92-1.962 3.839-3.92 5.754-5.881-2.677-.395-5.358-.776-8.033-1.179-1.178-2.434-2.363-4.868-3.541-7.302-1.161 2.43-2.322 4.861-3.479 7.295-2.681.399-5.362.787-8.047 1.186 1.916 1.926 3.838 3.852 5.758 5.778-.43 2.79-.861 5.578-1.288 8.368 2.124-1.153 4.244-2.307 6.364-3.46.25-.127.487-.29.744-.392 2.35 1.228 4.7 2.462 7.05 3.697-.036-.35-.107-.695-.16-1.044-.367-2.357-.762-4.71-1.122-7.066zm-1.83.8a.39.39 0 01-.12.018c-.043 0-.124 0-.244-.003l-.388-.011c-.141-.007-.275-.01-.406-.018-.13-.007-.236-.01-.31-.017a.943.943 0 01-.18-.032c-.028-.01-.046-.028-.046-.05 0-.031.018-.049.057-.056.02-.003.035-.035.038-.092a.768.768 0 00-.007-.197l-.384-4.16h-.025l-1.975 4.192a14.17 14.17 0 01-.17.345c-.028.053-.06.081-.095.081-.028 0-.056-.024-.088-.077a5.361 5.361 0 01-.162-.293 10.955 10.955 0 01-.23-.448 49.008 49.008 0 00-.303-.607 69.055 69.055 0 00-.275-.543c-.081-.159-.127-.247-.138-.272l-.095-.2c-.053-.114-.12-.248-.194-.407-.074-.158-.155-.328-.237-.511-.084-.184-.162-.356-.236-.515-.074-.162-.141-.303-.194-.424-.053-.12-.088-.2-.106-.236h-.032l-.32 3.74c-.008.063-.008.13-.008.2v.209c0 .06.021.113.06.162a.23.23 0 00.148.088.977.977 0 00.187.032.88.88 0 00.12.007c.043 0 .064.014.064.039 0 .05-.05.074-.145.074-.074 0-.151 0-.233-.003a4.696 4.696 0 00-.229-.007c-.074-.004-.134-.008-.187-.008-.05-.003-.085-.003-.102-.003-.018 0-.05 0-.106.003-.053.004-.113.004-.18.008-.067.003-.134.003-.205.006-.07.004-.13.004-.187.004-.091 0-.137-.025-.137-.074 0-.028.028-.039.081-.039.032 0 .067 0 .102-.003a2.05 2.05 0 00.141-.021.3.3 0 00.25-.237c.033-.13.057-.275.075-.43l.578-5.257c.011-.095.04-.144.089-.144.042 0 .084.038.12.12l2.466 5.07 2.37-5.063c.04-.085.078-.13.12-.13.05 0 .081.073.096.218l.54 4.95c.003.073.017.155.031.243.018.084.039.17.067.25a.76.76 0 00.124.223.431.431 0 00.208.14c.116.04.226.06.317.064.096.007.163.007.205.007.042 0 .063.014.063.039.01.028-.007.046-.038.056z" fill="url(#paint1_linear)"/><path d="M44.679 18.94c-4.54-.67-9.08-1.347-13.621-2.028-2.029-4.106-4.053-8.22-6.082-12.326-2.018 4.107-4.036 8.21-6.05 12.316-4.533.712-9.074 1.407-13.61 2.113l9.793 9.663c.074.063.017.173.017.254-.737 4.554-1.47 9.109-2.212 13.66 2.76-1.51 5.51-3.024 8.27-4.534 1.27-.688 2.53-1.4 3.803-2.074 4.046 2.148 8.082 4.314 12.125 6.466l-2.255-13.723c3.278-3.26 6.555-6.52 9.822-9.786zm-19.71 15.093c-1.697.843-3.366 1.746-5.041 2.625-1.52.804-3.038 1.608-4.558 2.416.578-3.63 1.185-7.253 1.753-10.887-2.54-2.638-5.084-5.274-7.624-7.909 3.57-.543 7.14-1.09 10.71-1.626 1.6-3.264 3.183-6.534 4.778-9.8l4.826 9.8c3.57.54 7.144 1.08 10.714 1.626-2.54 2.597-5.087 5.19-7.62 7.793.395 2.434.776 4.872 1.164 7.31.19 1.217.395 2.43.575 3.647-3.225-1.672-6.439-3.355-9.677-4.995z" fill="url(#paint2_linear)"/><defs><linearGradient id="paint0_linear" x1=".417" y1="25" x2="49.57" y2="25" gradientUnits="userSpaceOnUse"><stop stop-color="#F6DBAB"/><stop offset=".137" stop-color="#E4B069"/><stop offset=".196" stop-color="#E4B26B"/><stop offset=".235" stop-color="#E4B871"/><stop offset=".269" stop-color="#E4C47C"/><stop offset=".297" stop-color="#E4D38B"/><stop offset=".386" stop-color="#E5D189"/><stop offset=".468" stop-color="#E5CD81"/><stop offset=".548" stop-color="#E6C574"/><stop offset=".549" stop-color="#E6C573"/><stop offset=".758" stop-color="#BA794C"/><stop offset=".896" stop-color="#D18C51"/></linearGradient><linearGradient id="paint1_linear" x1="13.455" y1="24.404" x2="36.557" y2="24.404" gradientUnits="userSpaceOnUse"><stop stop-color="#F6DBAB"/><stop offset=".137" stop-color="#E4B069"/><stop offset=".196" stop-color="#E4B26B"/><stop offset=".235" stop-color="#E4B871"/><stop offset=".269" stop-color="#E4C47C"/><stop offset=".297" stop-color="#E4D38B"/><stop offset=".386" stop-color="#E5D189"/><stop offset=".468" stop-color="#E5CD81"/><stop offset=".548" stop-color="#E6C574"/><stop offset=".549" stop-color="#E6C573"/><stop offset=".758" stop-color="#BA794C"/><stop offset=".896" stop-color="#D18C51"/></linearGradient><linearGradient id="paint2_linear" x1="5.32" y1="23.589" x2="44.679" y2="23.589" gradientUnits="userSpaceOnUse"><stop stop-color="#F6DBAB"/><stop offset=".137" stop-color="#E4B069"/><stop offset=".196" stop-color="#E4B26B"/><stop offset=".235" stop-color="#E4B871"/><stop offset=".269" stop-color="#E4C47C"/><stop offset=".297" stop-color="#E4D38B"/><stop offset=".386" stop-color="#E5D189"/><stop offset=".468" stop-color="#E5CD81"/><stop offset=".548" stop-color="#E6C574"/><stop offset=".549" stop-color="#E6C573"/><stop offset=".758" stop-color="#BA794C"/><stop offset=".896" stop-color="#D18C51"/></linearGradient></defs></svg>