<svg fill="none" viewBox="0 0 50 50" xmlns="http://www.w3.org/2000/svg"><path d="M24.994 49.4c13.475 0 24.398-10.924 24.398-24.398S38.468.603 24.994.603.596 11.527.596 25.002 11.52 49.4 24.994 49.4z" stroke="url(#c)" stroke-miterlimit="10"/><path d="M30.8 27.454c1.92-1.962 3.838-3.92 5.754-5.88-2.678-.396-5.359-.777-8.033-1.18-1.178-2.433-2.364-4.868-3.542-7.302-1.16 2.43-2.321 4.862-3.478 7.296-2.682.398-5.363.786-8.047 1.185 1.915 1.926 3.838 3.852 5.757 5.779-.43 2.79-.86 5.577-1.288 8.368l6.365-3.461c.25-.127.486-.29.744-.392 2.35 1.228 4.699 2.463 7.049 3.698-.036-.35-.106-.695-.16-1.045-.366-2.356-.761-4.71-1.121-7.066zm-1.831.8a.39.39 0 01-.12.018c-.042 0-.123 0-.243-.003l-.388-.01c-.142-.008-.276-.011-.406-.018-.13-.007-.237-.01-.31-.018-.092-.01-.152-.021-.18-.032s-.046-.028-.046-.05c0-.03.017-.048.056-.055.021-.004.035-.036.039-.092a.768.768 0 00-.007-.198l-.385-4.16h-.024l-1.976 4.192c-.085.176-.141.293-.17.346s-.06.08-.095.08c-.028 0-.056-.024-.088-.077-.032-.05-.084-.148-.162-.293-.053-.095-.13-.247-.23-.448a49.008 49.008 0 00-.303-.606c-.102-.205-.194-.385-.275-.544s-.127-.247-.138-.271l-.095-.201c-.053-.113-.12-.247-.194-.406-.074-.159-.155-.328-.236-.512-.085-.183-.162-.356-.236-.515-.075-.162-.142-.303-.195-.423a8.024 8.024 0 00-.105-.236h-.032l-.321 3.74c-.007.063-.007.13-.007.2v.208c0 .06.021.113.06.163s.088.077.148.088c.07.017.13.028.187.031a.861.861 0 00.12.008c.042 0 .063.014.063.038 0 .05-.049.074-.144.074-.074 0-.152 0-.233-.003a4.774 4.774 0 00-.23-.007 3.615 3.615 0 00-.186-.007c-.05-.004-.085-.004-.103-.004s-.05 0-.106.004c-.052.003-.112.003-.18.007-.066.003-.133.003-.204.007-.07.004-.13.004-.187.004-.092 0-.138-.025-.138-.075 0-.028.029-.038.082-.038.031 0 .067 0 .102-.004a2.05 2.05 0 00.14-.021.3.3 0 00.251-.237c.032-.13.057-.275.074-.43l.579-5.256c.01-.096.039-.145.088-.145.043 0 .085.039.12.12l2.466 5.07 2.37-5.063c.04-.085.079-.13.12-.13.05 0 .082.074.096.218l.54 4.95c.003.074.017.155.032.243.017.085.038.17.067.25a.76.76 0 00.123.223.431.431 0 00.208.141c.117.039.226.06.318.064.095.007.162.007.204.007.043 0 .064.014.064.038.01.029-.007.046-.039.057z" fill="url(#b)"/><path d="M44.679 18.941a5890.1 5890.1 0 01-13.621-2.029c-2.029-4.106-4.053-8.22-6.082-12.326-2.018 4.107-4.036 8.21-6.05 12.316-4.533.713-9.074 1.408-13.61 2.114 3.263 3.22 6.53 6.441 9.793 9.662.074.064.018.173.018.254-.738 4.555-1.471 9.11-2.212 13.66 2.759-1.51 5.51-3.023 8.269-4.533 1.27-.688 2.53-1.4 3.803-2.074 4.046 2.148 8.082 4.314 12.125 6.466l-2.254-13.723c3.277-3.26 6.554-6.52 9.821-9.786zm-19.71 15.092c-1.697.843-3.366 1.746-5.041 2.625-1.52.804-3.038 1.608-4.558 2.416.578-3.63 1.185-7.253 1.753-10.887-2.54-2.639-5.083-5.274-7.624-7.91 3.57-.542 7.14-1.09 10.71-1.625 1.599-3.264 3.183-6.534 4.777-9.8l4.826 9.8c3.57.54 7.144 1.08 10.714 1.626-2.54 2.596-5.087 5.19-7.62 7.793.395 2.434.776 4.872 1.164 7.31.19 1.217.395 2.43.575 3.647-3.224-1.672-6.438-3.355-9.676-4.995z" fill="url(#a)"/><defs><linearGradient id="c" x1=".417" x2="49.57" y1="25" y2="25" gradientUnits="userSpaceOnUse"><stop stop-color="#F6DBAB" offset="0"/><stop stop-color="#E4B069" offset=".137"/><stop stop-color="#E4B26B" offset=".196"/><stop stop-color="#E4B871" offset=".235"/><stop stop-color="#E4C47C" offset=".269"/><stop stop-color="#E4D38B" offset=".297"/><stop stop-color="#E5D189" offset=".386"/><stop stop-color="#E5CD81" offset=".468"/><stop stop-color="#E6C574" offset=".548"/><stop stop-color="#E6C573" offset=".549"/><stop stop-color="#BA794C" offset=".758"/><stop stop-color="#D18C51" offset=".896"/></linearGradient><linearGradient id="b" x1="13.455" x2="36.557" y1="24.404" y2="24.404" gradientUnits="userSpaceOnUse"><stop stop-color="#F6DBAB" offset="0"/><stop stop-color="#E4B069" offset=".137"/><stop stop-color="#E4B26B" offset=".196"/><stop stop-color="#E4B871" offset=".235"/><stop stop-color="#E4C47C" offset=".269"/><stop stop-color="#E4D38B" offset=".297"/><stop stop-color="#E5D189" offset=".386"/><stop stop-color="#E5CD81" offset=".468"/><stop stop-color="#E6C574" offset=".548"/><stop stop-color="#E6C573" offset=".549"/><stop stop-color="#BA794C" offset=".758"/><stop stop-color="#D18C51" offset=".896"/></linearGradient><linearGradient id="a" x1="5.32" x2="44.679" y1="23.589" y2="23.589" gradientUnits="userSpaceOnUse"><stop stop-color="#F6DBAB" offset="0"/><stop stop-color="#E4B069" offset=".137"/><stop stop-color="#E4B26B" offset=".196"/><stop stop-color="#E4B871" offset=".235"/><stop stop-color="#E4C47C" offset=".269"/><stop stop-color="#E4D38B" offset=".297"/><stop stop-color="#E5D189" offset=".386"/><stop stop-color="#E5CD81" offset=".468"/><stop stop-color="#E6C574" offset=".548"/><stop stop-color="#E6C573" offset=".549"/><stop stop-color="#BA794C" offset=".758"/><stop stop-color="#D18C51" offset=".896"/></linearGradient></defs></svg>