<?xml version="1.0" encoding="UTF-8"?>
<svg fill="none" viewBox="0 0 50 50" xmlns="http://www.w3.org/2000/svg">
<path d="m24.994 49.4c13.475 0 24.398-10.924 24.398-24.398s-10.924-24.399-24.398-24.399-24.398 10.924-24.398 24.399 10.924 24.398 24.398 24.398z" stroke="url(#c)" stroke-miterlimit="10"/>
<path d="m30.8 27.454c1.9191-1.9615 3.8382-3.9194 5.7539-5.8809-2.6777-0.3951-5.3588-0.7761-8.0329-1.1783-1.1783-2.4342-2.3637-4.8684-3.542-7.3026-1.1606 2.4307-2.3213 4.8614-3.4784 7.2956-2.6812 0.3986-5.3623 0.7867-8.047 1.1853 1.9156 1.9262 3.8383 3.8524 5.7574 5.7786-0.4304 2.7905-0.8608 5.5775-1.2876 8.368 2.1237-1.1536 4.244-2.3072 6.3642-3.4608 0.2505-0.127 0.4868-0.2893 0.7444-0.3916 2.3495 1.2277 4.699 2.4625 7.0486 3.6972-0.0353-0.3493-0.1059-0.695-0.1588-1.0442-0.3669-2.3566-0.762-4.7097-1.1218-7.0663zm-1.831 0.8008c-0.0317 0.0106-0.0741 0.0177-0.1199 0.0177-0.0424 0-0.1235 0-0.2435-0.0036-0.1199-0.0035-0.2469-7e-3 -0.388-0.0105-0.1411-0.0071-0.2752-0.0106-0.4057-0.0177-0.1305-7e-3 -0.2364-0.0106-0.3105-0.0176-0.0917-0.0106-0.1517-0.0212-0.1799-0.0318s-0.0458-0.0282-0.0458-0.0494c0-0.0317 0.0176-0.0494 0.0564-0.0564 0.0212-0.0035 0.0353-0.0353 0.0388-0.0917 0.0071-0.0565 0.0035-0.1235-7e-3 -0.1976l-0.3846-4.1593h-0.0247l-1.9756 4.1911c-0.0846 0.1764-0.1411 0.2928-0.1693 0.3457s-0.06 0.0811-0.0953 0.0811c-0.0282 0-0.0564-0.0247-0.0881-0.0776-0.0318-0.0494-0.0847-0.1482-0.1623-0.2928-0.0529-0.0952-0.1306-0.2469-0.2293-0.448-0.0988-0.2011-0.2011-0.4057-0.3034-0.6068-0.1023-0.2046-0.1941-0.3845-0.2752-0.5433s-0.127-0.247-0.1376-0.2716c-0.0106-0.0212-0.0423-0.0882-0.0952-0.2011-0.053-0.1129-0.12-0.247-0.1941-0.4057-0.0741-0.1588-0.1552-0.3281-0.2363-0.5116-0.0847-0.1834-0.1623-0.3563-0.2364-0.515-0.0741-0.1623-0.1411-0.3034-0.194-0.4234-0.0529-0.1199-0.0882-0.2011-0.1059-0.2363h-0.0317l-0.321 3.7395c-0.0071 0.0635-0.0071 0.1305-0.0071 0.2011v0.2081c0 0.06 0.0212 0.1129 0.06 0.1623s0.0882 0.0776 0.1481 0.0882c0.0706 0.0176 0.1306 0.0282 0.187 0.0317 0.0529 0.0071 0.0953 0.0071 0.12 0.0071 0.0423 0 0.0635 0.0141 0.0635 0.0388 0 0.0494-0.0494 0.0741-0.1447 0.0741-0.0741 0-0.1517 0-0.2328-0.0036-0.0812-0.0035-0.1588-7e-3 -0.2293-7e-3 -0.0741-0.0035-0.1341-0.0071-0.187-0.0071-0.0494-0.0035-0.0847-0.0035-0.1023-0.0035s-0.0494 0-0.1058 0.0035c-0.053 0.0036-0.1129 0.0036-0.18 0.0071-0.067 0.0035-0.134 0.0035-0.2046 7e-3 -0.0705 0.0036-0.1305 0.0036-0.187 0.0036-0.0917 0-0.1375-0.0247-0.1375-0.0741 0-0.0282 0.0282-0.0388 0.0811-0.0388 0.0318 0 0.067 0 0.1023-0.0035 0.0353-0.0036 0.0811-0.0106 0.1411-0.0212 0.1341-0.0282 0.2187-0.1059 0.2505-0.2364 0.0317-0.1305 0.0564-0.2752 0.0741-0.4304l0.5785-5.2565c0.0106-0.0952 0.0389-0.1446 0.0882-0.1446 0.0424 0 0.0847 0.0388 0.12 0.12l2.4659 5.0695 2.3707-5.0625c0.0389-0.0847 0.0777-0.1305 0.12-0.1305 0.0494 0 0.0811 0.0741 0.0952 0.2187l0.5398 4.9496c0.0035 0.074 0.0176 0.1552 0.0318 0.2434 0.0176 0.0846 0.0388 0.1693 0.067 0.2505 0.0282 0.0811 0.0705 0.1552 0.1235 0.2222 0.0529 0.067 0.1234 0.1129 0.2081 0.1411 0.1164 0.0388 0.2258 0.06 0.3175 0.0635 0.0953 0.0071 0.1623 0.0071 0.2046 0.0071 0.0424 0 0.0635 0.0141 0.0635 0.0388 0.0106 0.0282-7e-3 0.0458-0.0388 0.0564z" fill="url(#b)"/>
<path d="m44.679 18.941c-4.5403-0.6702-9.0806-1.3476-13.621-2.0285-2.0285-4.1064-4.0534-8.2198-6.0819-12.326-2.018 4.1064-4.0359 8.2093-6.0503 12.316-4.5333 0.7126-9.0736 1.4076-13.61 2.1131 3.2632 3.2209 6.5301 6.4419 9.7933 9.6628 0.0741 0.0635 0.0176 0.1728 0.0176 0.254-0.7373 4.5544-1.4711 9.1088-2.2119 13.66 2.7588-1.5099 5.5105-3.0233 8.2692-4.5332 1.2701-0.688 2.5295-1.4006 3.803-2.0744 4.0465 2.1485 8.0823 4.3146 12.125 6.4665-0.7514-4.5756-1.5029-9.1476-2.2543-13.723 3.2774-3.2598 6.5547-6.5195 9.8215-9.7863zm-19.71 15.092c-1.6969 0.8432-3.3656 1.7463-5.0413 2.6247-1.5205 0.8044-3.0374 1.6087-4.5579 2.4166 0.5785-3.6301 1.1853-7.2532 1.7533-10.887-2.54-2.6388-5.0836-5.2741-7.6237-7.9094 3.5702-0.5433 7.1404-1.0901 10.71-1.6263 1.5982-3.2633 3.1822-6.5336 4.7767-9.8004 1.6087 3.2668 3.2174 6.5336 4.8261 9.8004 3.5702 0.5397 7.1439 1.0795 10.714 1.6263-2.54 2.5965-5.0871 5.1894-7.6201 7.793 0.3951 2.4342 0.7761 4.8719 1.1642 7.3097 0.1905 1.2171 0.3951 2.4306 0.575 3.6477-3.2244-1.6722-6.4383-3.3549-9.6768-4.9954z" fill="url(#a)"/>
<defs>
<linearGradient id="c" x1=".41691" x2="49.57" y1="25" y2="25" gradientUnits="userSpaceOnUse">
<stop stop-color="#F6DBAB" offset="0"/>
<stop stop-color="#E4B069" offset=".1374"/>
<stop stop-color="#E4B26B" offset=".1962"/>
<stop stop-color="#E4B871" offset=".2354"/>
<stop stop-color="#E4C47C" offset=".2689"/>
<stop stop-color="#E4D38B" offset=".2967"/>
<stop stop-color="#E5D189" offset=".3862"/>
<stop stop-color="#E5CD81" offset=".4683"/>
<stop stop-color="#E6C574" offset=".5476"/>
<stop stop-color="#E6C573" offset=".5495"/>
<stop stop-color="#BA794C" offset=".7582"/>
<stop stop-color="#D18C51" offset=".8956"/>
</linearGradient>
<linearGradient id="b" x1="13.455" x2="36.557" y1="24.404" y2="24.404" gradientUnits="userSpaceOnUse">
<stop stop-color="#F6DBAB" offset="0"/>
<stop stop-color="#E4B069" offset=".1374"/>
<stop stop-color="#E4B26B" offset=".1962"/>
<stop stop-color="#E4B871" offset=".2354"/>
<stop stop-color="#E4C47C" offset=".2689"/>
<stop stop-color="#E4D38B" offset=".2967"/>
<stop stop-color="#E5D189" offset=".3862"/>
<stop stop-color="#E5CD81" offset=".4683"/>
<stop stop-color="#E6C574" offset=".5476"/>
<stop stop-color="#E6C573" offset=".5495"/>
<stop stop-color="#BA794C" offset=".7582"/>
<stop stop-color="#D18C51" offset=".8956"/>
</linearGradient>
<linearGradient id="a" x1="5.3196" x2="44.679" y1="23.589" y2="23.589" gradientUnits="userSpaceOnUse">
<stop stop-color="#F6DBAB" offset="0"/>
<stop stop-color="#E4B069" offset=".1374"/>
<stop stop-color="#E4B26B" offset=".1962"/>
<stop stop-color="#E4B871" offset=".2354"/>
<stop stop-color="#E4C47C" offset=".2689"/>
<stop stop-color="#E4D38B" offset=".2967"/>
<stop stop-color="#E5D189" offset=".3862"/>
<stop stop-color="#E5CD81" offset=".4683"/>
<stop stop-color="#E6C574" offset=".5476"/>
<stop stop-color="#E6C573" offset=".5495"/>
<stop stop-color="#BA794C" offset=".7582"/>
<stop stop-color="#D18C51" offset=".8956"/>
</linearGradient>
</defs>
</svg>
