<svg width="50" height="50" viewBox="0 0 50 50" fill="none" xmlns="http://www.w3.org/2000/svg">
<path d="M24.9942 49.4003C38.4691 49.4003 49.3927 38.4767 49.3927 25.0018C49.3927 11.5269 38.4691 0.603271 24.9942 0.603271C11.5193 0.603271 0.595703 11.5269 0.595703 25.0018C0.595703 38.4767 11.5193 49.4003 24.9942 49.4003Z" stroke="url(#paint0_linear)" stroke-miterlimit="10"/>
<path d="M30.8005 27.4536C32.7196 25.4921 34.6387 23.5342 36.5544 21.5727C33.8767 21.1776 31.1956 20.7966 28.5215 20.3944C27.3432 17.9602 26.1578 15.526 24.9795 13.0918C23.8189 15.5225 22.6582 17.9532 21.5011 20.3874C18.8199 20.786 16.1388 21.1741 13.4541 21.5727C15.3697 23.4989 17.2924 25.4251 19.2115 27.3513C18.7811 30.1418 18.3507 32.9288 17.9239 35.7193C20.0476 34.5657 22.1679 33.4121 24.2881 32.2585C24.5386 32.1315 24.7749 31.9692 25.0325 31.8669C27.382 33.0946 29.7315 34.3294 32.0811 35.5641C32.0458 35.2148 31.9752 34.8691 31.9223 34.5199C31.5554 32.1633 31.1603 29.8102 30.8005 27.4536ZM28.9695 28.2544C28.9378 28.265 28.8954 28.2721 28.8496 28.2721C28.8072 28.2721 28.7261 28.2721 28.6061 28.2685C28.4862 28.265 28.3592 28.2615 28.2181 28.258C28.077 28.2509 27.9429 28.2474 27.8124 28.2403C27.6819 28.2333 27.576 28.2297 27.5019 28.2227C27.4102 28.2121 27.3502 28.2015 27.322 28.1909C27.2938 28.1803 27.2762 28.1627 27.2762 28.1415C27.2762 28.1098 27.2938 28.0921 27.3326 28.0851C27.3538 28.0816 27.3679 28.0498 27.3714 27.9934C27.3785 27.9369 27.3749 27.8699 27.3644 27.7958L26.9798 23.6365H26.9551L24.9795 27.8276C24.8949 28.004 24.8384 28.1204 24.8102 28.1733C24.782 28.2262 24.7502 28.2544 24.7149 28.2544C24.6867 28.2544 24.6585 28.2297 24.6268 28.1768C24.595 28.1274 24.5421 28.0286 24.4645 27.884C24.4116 27.7888 24.3339 27.6371 24.2352 27.436C24.1364 27.2349 24.0341 27.0303 23.9318 26.8292C23.8295 26.6246 23.7377 26.4447 23.6566 26.2859C23.5755 26.1271 23.5296 26.0389 23.519 26.0143C23.5084 25.9931 23.4767 25.9261 23.4238 25.8132C23.3708 25.7003 23.3038 25.5662 23.2297 25.4075C23.1556 25.2487 23.0745 25.0794 22.9934 24.8959C22.9087 24.7125 22.8311 24.5396 22.757 24.3809C22.6829 24.2186 22.6159 24.0775 22.563 23.9575C22.5101 23.8376 22.4748 23.7564 22.4571 23.7212H22.4254L22.1044 27.4607C22.0973 27.5242 22.0973 27.5912 22.0973 27.6618C22.0973 27.7323 22.0973 27.8029 22.0973 27.8699C22.0973 27.9299 22.1185 27.9828 22.1573 28.0322C22.1961 28.0816 22.2455 28.1098 22.3054 28.1204C22.376 28.138 22.436 28.1486 22.4924 28.1521C22.5453 28.1592 22.5877 28.1592 22.6124 28.1592C22.6547 28.1592 22.6759 28.1733 22.6759 28.198C22.6759 28.2474 22.6265 28.2721 22.5312 28.2721C22.4571 28.2721 22.3795 28.2721 22.2984 28.2685C22.2172 28.265 22.1396 28.2615 22.0691 28.2615C21.995 28.258 21.935 28.2544 21.8821 28.2544C21.8327 28.2509 21.7974 28.2509 21.7798 28.2509C21.7622 28.2509 21.7304 28.2509 21.674 28.2544C21.621 28.258 21.5611 28.258 21.494 28.2615C21.427 28.265 21.36 28.265 21.2894 28.2685C21.2189 28.2721 21.1589 28.2721 21.1024 28.2721C21.0107 28.2721 20.9649 28.2474 20.9649 28.198C20.9649 28.1698 20.9931 28.1592 21.046 28.1592C21.0778 28.1592 21.113 28.1592 21.1483 28.1557C21.1836 28.1521 21.2294 28.1451 21.2894 28.1345C21.4235 28.1063 21.5081 28.0286 21.5399 27.8981C21.5716 27.7676 21.5963 27.6229 21.614 27.4677L22.1925 22.2112C22.2031 22.116 22.2314 22.0666 22.2807 22.0666C22.3231 22.0666 22.3654 22.1054 22.4007 22.1866L24.8666 27.2561L27.2373 22.1936C27.2762 22.1089 27.315 22.0631 27.3573 22.0631C27.4067 22.0631 27.4384 22.1372 27.4525 22.2818L27.9923 27.2314C27.9958 27.3054 28.0099 27.3866 28.0241 27.4748C28.0417 27.5594 28.0629 27.6441 28.0911 27.7253C28.1193 27.8064 28.1616 27.8805 28.2146 27.9475C28.2675 28.0145 28.338 28.0604 28.4227 28.0886C28.5391 28.1274 28.6485 28.1486 28.7402 28.1521C28.8355 28.1592 28.9025 28.1592 28.9448 28.1592C28.9872 28.1592 29.0083 28.1733 29.0083 28.198C29.0189 28.2262 29.0013 28.2438 28.9695 28.2544Z" fill="url(#paint1_linear)"/>
<path d="M44.679 18.9409C40.1387 18.2707 35.5984 17.5933 31.058 16.9124C29.0295 12.806 27.0046 8.69258 24.9761 4.58618C22.9581 8.69258 20.9402 12.7955 18.9258 16.9019C14.3925 17.6145 9.85222 18.3095 5.31543 19.015C8.57868 22.2359 11.8455 25.4569 15.1087 28.6778C15.1828 28.7413 15.1263 28.8506 15.1263 28.9318C14.389 33.4862 13.6552 38.0406 12.9144 42.5915C15.6732 41.0816 18.4249 39.5682 21.1836 38.0583C22.4537 37.3703 23.7131 36.6577 24.9866 35.9839C29.0331 38.1324 33.0689 40.2985 37.1118 42.4504C36.3604 37.8748 35.6089 33.3028 34.8575 28.7272C38.1349 25.4674 41.4122 22.2077 44.679 18.9409ZM24.969 34.033C23.2721 34.8762 21.6034 35.7793 19.9277 36.6577C18.4072 37.4621 16.8903 38.2664 15.3698 39.0743C15.9483 35.4442 16.5551 31.8211 17.1231 28.1874C14.5831 25.5486 12.0395 22.9133 9.49944 20.278C13.0696 19.7347 16.6398 19.1879 20.2099 18.6517C21.8081 15.3884 23.3921 12.1181 24.9866 8.85133C26.5953 12.1181 28.204 15.3849 29.8127 18.6517C33.3829 19.1914 36.9566 19.7312 40.5267 20.278C37.9867 22.8745 35.4396 25.4674 32.9066 28.071C33.3017 30.5052 33.6827 32.9429 34.0708 35.3807C34.2613 36.5978 34.4659 37.8113 34.6458 39.0284C31.4214 37.3562 28.2075 35.6735 24.969 34.033Z" fill="url(#paint2_linear)"/>
<defs>
<linearGradient id="paint0_linear" x1="0.416912" y1="25.0004" x2="49.5696" y2="25.0004" gradientUnits="userSpaceOnUse">
<stop stop-color="#F6DBAB"/>
<stop offset="0.1374" stop-color="#E4B069"/>
<stop offset="0.1962" stop-color="#E4B26B"/>
<stop offset="0.2354" stop-color="#E4B871"/>
<stop offset="0.2689" stop-color="#E4C47C"/>
<stop offset="0.2967" stop-color="#E4D38B"/>
<stop offset="0.3862" stop-color="#E5D189"/>
<stop offset="0.4683" stop-color="#E5CD81"/>
<stop offset="0.5476" stop-color="#E6C574"/>
<stop offset="0.5495" stop-color="#E6C573"/>
<stop offset="0.7582" stop-color="#BA794C"/>
<stop offset="0.8956" stop-color="#D18C51"/>
</linearGradient>
<linearGradient id="paint1_linear" x1="13.4549" y1="24.4045" x2="36.5571" y2="24.4045" gradientUnits="userSpaceOnUse">
<stop stop-color="#F6DBAB"/>
<stop offset="0.1374" stop-color="#E4B069"/>
<stop offset="0.1962" stop-color="#E4B26B"/>
<stop offset="0.2354" stop-color="#E4B871"/>
<stop offset="0.2689" stop-color="#E4C47C"/>
<stop offset="0.2967" stop-color="#E4D38B"/>
<stop offset="0.3862" stop-color="#E5D189"/>
<stop offset="0.4683" stop-color="#E5CD81"/>
<stop offset="0.5476" stop-color="#E6C574"/>
<stop offset="0.5495" stop-color="#E6C573"/>
<stop offset="0.7582" stop-color="#BA794C"/>
<stop offset="0.8956" stop-color="#D18C51"/>
</linearGradient>
<linearGradient id="paint2_linear" x1="5.31956" y1="23.5893" x2="44.6792" y2="23.5893" gradientUnits="userSpaceOnUse">
<stop stop-color="#F6DBAB"/>
<stop offset="0.1374" stop-color="#E4B069"/>
<stop offset="0.1962" stop-color="#E4B26B"/>
<stop offset="0.2354" stop-color="#E4B871"/>
<stop offset="0.2689" stop-color="#E4C47C"/>
<stop offset="0.2967" stop-color="#E4D38B"/>
<stop offset="0.3862" stop-color="#E5D189"/>
<stop offset="0.4683" stop-color="#E5CD81"/>
<stop offset="0.5476" stop-color="#E6C574"/>
<stop offset="0.5495" stop-color="#E6C573"/>
<stop offset="0.7582" stop-color="#BA794C"/>
<stop offset="0.8956" stop-color="#D18C51"/>
</linearGradient>
</defs>
</svg>
